<svg xmlns="http://www.w3.org/2000/svg" xmlns:xlink="http://www.w3.org/1999/xlink" width="250" zoomAndPan="magnify" viewBox="0 0 187.5 187.499992" height="250" preserveAspectRatio="xMidYMid meet" version="1.0"><defs><clipPath id="id1"><path d="M 3.398438 42 L 184.148438 42 L 184.148438 187 L 3.398438 187 Z M 3.398438 42 " clip-rule="nonzero"/></clipPath></defs><path fill="#000000" d="M 72 123.882812 C 47.476562 116.273438 33.421875 120.75 25.644531 126.574219 C 37.882812 151.8125 63.761719 169.253906 93.648438 169.253906 C 135.292969 169.253906 169.171875 135.382812 169.171875 93.75 C 169.171875 92.679688 169.144531 91.621094 169.101562 90.566406 C 157.28125 130.035156 110.253906 135.75 72 123.882812 " fill-opacity="1" fill-rule="nonzero"/><path fill="#fab425" d="M 69.164062 114.054688 C 43.464844 103.175781 28.648438 107.730469 20.738281 113.472656 C 21.972656 118.023438 23.625 122.40625 25.644531 126.574219 C 33.421875 120.75 47.476562 116.273438 72 123.882812 C 110.253906 135.75 157.28125 130.035156 169.101562 90.566406 C 153.410156 128.664062 106.046875 129.671875 69.164062 114.054688 " fill-opacity="1" fill-rule="nonzero"/><path fill="#ff8210" d="M 154.1875 93.136719 C 152.847656 92.019531 151.347656 91.609375 152.105469 90.695312 C 152.871094 89.777344 154.578125 89.941406 155.917969 91.058594 C 157.261719 92.179688 157.734375 93.828125 156.972656 94.742188 C 156.210938 95.65625 155.535156 94.253906 154.1875 93.136719 Z M 152.476562 88.738281 C 149 88.738281 146.175781 91.558594 146.175781 95.035156 C 146.175781 98.515625 149 101.335938 152.476562 101.335938 C 155.957031 101.335938 158.777344 98.515625 158.777344 95.035156 C 158.777344 91.558594 155.957031 88.738281 152.476562 88.738281 " fill-opacity="1" fill-rule="nonzero"/><path fill="#ff8210" d="M 43.066406 83.023438 C 41.722656 81.90625 40.222656 81.496094 40.984375 80.578125 C 41.746094 79.664062 43.453125 79.828125 44.796875 80.945312 C 46.140625 82.0625 46.609375 83.710938 45.847656 84.625 C 45.085938 85.542969 44.410156 84.140625 43.066406 83.023438 Z M 41.351562 78.625 C 37.875 78.625 35.054688 81.445312 35.054688 84.921875 C 35.054688 88.402344 37.875 91.21875 41.351562 91.21875 C 44.832031 91.21875 47.652344 88.402344 47.652344 84.921875 C 47.652344 81.445312 44.832031 78.625 41.351562 78.625 " fill-opacity="1" fill-rule="nonzero"/><path fill="#ff8210" d="M 28.839844 92.597656 C 26.84375 90.933594 24.609375 90.324219 25.742188 88.960938 C 26.875 87.601562 29.414062 87.84375 31.414062 89.507812 C 33.410156 91.167969 34.113281 93.621094 32.980469 94.980469 C 31.84375 96.34375 30.839844 94.257812 28.839844 92.597656 Z M 26.292969 86.054688 C 21.117188 86.054688 16.921875 90.25 16.921875 95.421875 C 16.921875 100.597656 21.117188 104.789062 26.292969 104.789062 C 31.46875 104.789062 35.664062 100.597656 35.664062 95.421875 C 35.664062 90.25 31.46875 86.054688 26.292969 86.054688 " fill-opacity="1" fill-rule="nonzero"/><path fill="#ff8210" d="M 155.464844 73.84375 C 154.800781 73.292969 154.0625 73.089844 154.4375 72.636719 C 154.8125 72.183594 155.65625 72.265625 156.316406 72.816406 C 156.980469 73.371094 157.210938 74.183594 156.835938 74.632812 C 156.460938 75.085938 156.125 74.394531 155.464844 73.84375 Z M 154.617188 71.671875 C 152.902344 71.671875 151.511719 73.0625 151.511719 74.777344 C 151.511719 76.496094 152.902344 77.886719 154.617188 77.886719 C 156.335938 77.886719 157.726562 76.496094 157.726562 74.777344 C 157.726562 73.0625 156.335938 71.671875 154.617188 71.671875 " fill-opacity="1" fill-rule="nonzero"/><path fill="#ff8210" d="M 45.589844 65.910156 C 44.925781 65.359375 44.1875 65.15625 44.5625 64.703125 C 44.9375 64.25 45.78125 64.332031 46.441406 64.882812 C 47.105469 65.4375 47.335938 66.25 46.960938 66.699219 C 46.585938 67.152344 46.25 66.460938 45.589844 65.910156 Z M 44.746094 63.738281 C 43.027344 63.738281 41.636719 65.128906 41.636719 66.847656 C 41.636719 68.5625 43.027344 69.953125 44.746094 69.953125 C 46.460938 69.953125 47.851562 68.5625 47.851562 66.847656 C 47.851562 65.128906 46.460938 63.738281 44.746094 63.738281 " fill-opacity="1" fill-rule="nonzero"/><path fill="#ff8210" d="M 164.832031 83.226562 C 163.808594 82.375 162.667969 82.0625 163.246094 81.367188 C 163.824219 80.667969 165.125 80.792969 166.148438 81.644531 C 167.167969 82.496094 167.527344 83.746094 166.949219 84.445312 C 166.367188 85.140625 165.851562 84.074219 164.832031 83.226562 Z M 163.527344 79.878906 C 160.882812 79.878906 158.734375 82.023438 158.734375 84.671875 C 158.734375 87.316406 160.882812 89.460938 163.527344 89.460938 C 166.175781 89.460938 168.320312 87.316406 168.320312 84.671875 C 168.320312 82.023438 166.175781 79.878906 163.527344 79.878906 " fill-opacity="1" fill-rule="nonzero"/><path fill="#ff8210" d="M 34.554688 72.753906 C 33.535156 71.90625 32.390625 71.589844 32.972656 70.894531 C 33.550781 70.199219 34.847656 70.324219 35.871094 71.175781 C 36.894531 72.023438 37.25 73.277344 36.671875 73.972656 C 36.09375 74.671875 35.578125 73.605469 34.554688 72.753906 Z M 33.253906 69.410156 C 30.605469 69.410156 28.460938 71.554688 28.460938 74.199219 C 28.460938 76.84375 30.605469 78.992188 33.253906 78.992188 C 35.898438 78.992188 38.042969 76.84375 38.042969 74.199219 C 38.042969 71.554688 35.898438 69.410156 33.253906 69.410156 " fill-opacity="1" fill-rule="nonzero"/><g clip-path="url(#id1)"><path fill="#fab425" d="M 167.296875 44.660156 L 163.5 54.042969 C 171.273438 66.574219 175.765625 81.351562 175.765625 97.183594 C 175.765625 142.449219 139.0625 179.148438 93.78125 179.148438 C 48.503906 179.148438 11.796875 142.449219 11.796875 97.183594 C 11.796875 80.398438 16.847656 64.792969 25.507812 51.800781 L 21.789062 42.605469 C 10.269531 57.765625 3.429688 76.675781 3.429688 97.183594 C 3.429688 147.070312 43.882812 187.511719 93.78125 187.511719 C 143.683594 187.511719 184.136719 147.070312 184.136719 97.183594 C 184.136719 77.59375 177.894531 59.460938 167.296875 44.660156 " fill-opacity="1" fill-rule="nonzero"/></g><path fill="#fab425" d="M 100.707031 36.832031 C 99.589844 30.589844 99.027344 30.109375 92.6875 29.945312 C 98.929688 28.824219 99.414062 28.261719 99.578125 21.925781 C 100.699219 28.164062 101.257812 28.648438 107.597656 28.8125 C 101.355469 29.929688 100.875 30.492188 100.707031 36.832031 Z M 85.054688 77.875 C 88.214844 68.585938 87.820312 67.515625 79.359375 62.539062 C 88.648438 65.699219 89.722656 65.304688 94.695312 56.84375 C 91.535156 66.132812 91.933594 67.207031 100.394531 72.179688 C 91.101562 69.019531 90.03125 69.417969 85.054688 77.875 Z M 66.945312 56.851562 C 64.550781 43.523438 63.355469 42.496094 49.816406 42.144531 C 63.148438 39.75 64.175781 38.554688 64.53125 25.019531 C 66.921875 38.347656 68.117188 39.375 81.65625 39.730469 C 68.324219 42.117188 67.296875 43.316406 66.945312 56.851562 Z M 117.296875 0.00390625 C 114.992188 10.21875 105.867188 17.847656 94.957031 17.847656 C 84.046875 17.847656 74.921875 10.21875 72.617188 0.00390625 C 54.785156 4.410156 31.476562 12.707031 21.59375 27.242188 L 32.753906 54.839844 C 34.160156 60.652344 54.554688 50.332031 54.554688 50.332031 C 54.554688 50.332031 52.890625 66.832031 50.277344 103.75 C 51.652344 103.199219 53.152344 102.894531 54.722656 102.894531 C 58.925781 102.894531 62.625 105.050781 64.777344 108.3125 C 64.734375 107.980469 64.710938 107.644531 64.710938 107.300781 C 64.710938 103.085938 68.128906 99.667969 72.34375 99.667969 C 76.5625 99.667969 79.980469 103.085938 79.980469 107.300781 C 79.980469 107.421875 79.976562 107.542969 79.96875 107.664062 C 80.914062 107.429688 81.898438 107.300781 82.917969 107.300781 C 86 107.300781 88.816406 108.460938 90.945312 110.371094 C 91.589844 106.136719 95.242188 102.894531 99.65625 102.894531 C 100.53125 102.894531 101.378906 103.027344 102.175781 103.265625 C 102.167969 103.144531 102.15625 103.019531 102.15625 102.894531 C 102.15625 100.0625 104.457031 97.761719 107.292969 97.761719 C 110.125 97.761719 112.425781 100.0625 112.425781 102.894531 C 112.425781 104.171875 111.957031 105.335938 111.1875 106.234375 C 112.148438 105.984375 113.15625 105.855469 114.199219 105.855469 C 118.433594 105.855469 122.15625 108.042969 124.300781 111.351562 C 126.238281 109.566406 128.824219 108.476562 131.664062 108.476562 C 135.164062 108.476562 138.273438 110.128906 140.261719 112.695312 C 137.292969 69.488281 135.359375 50.332031 135.359375 50.332031 C 135.359375 50.332031 155.753906 60.652344 157.160156 54.839844 L 168.320312 27.242188 C 158.4375 12.707031 135.128906 4.410156 117.296875 0.00390625 " fill-opacity="1" fill-rule="nonzero"/></svg>