<svg xmlns="http://www.w3.org/2000/svg" xmlns:xlink="http://www.w3.org/1999/xlink" width="250" zoomAndPan="magnify" viewBox="0 0 187.5 74.999997" height="100" preserveAspectRatio="xMidYMid meet" version="1.0"><defs><g/><clipPath id="id1"><path d="M 1.5 20 L 50.25 20 L 50.25 60.382812 L 1.5 60.382812 Z M 1.5 20 " clip-rule="nonzero"/></clipPath><clipPath id="id2"><path d="M 6 9.382812 L 46 9.382812 L 46 41 L 6 41 Z M 6 9.382812 " clip-rule="nonzero"/></clipPath></defs><g fill="#fab425" fill-opacity="1"><g transform="translate(55.08009, 40.493204)"><g><path d="M 6.046875 1.828125 L 3.578125 1.828125 C 3.328125 1.828125 3.144531 1.769531 3.03125 1.65625 C 2.914062 1.539062 2.859375 1.363281 2.859375 1.125 L 2.859375 -6.25 L 0.765625 -6.25 C 0.523438 -6.25 0.347656 -6.304688 0.234375 -6.421875 C 0.117188 -6.535156 0.0625 -6.710938 0.0625 -6.953125 L 0.0625 -8.8125 C 0.0625 -8.945312 0.078125 -9.054688 0.109375 -9.140625 C 0.148438 -9.234375 0.207031 -9.3125 0.28125 -9.375 L 2.25 -11.046875 C 2.300781 -11.085938 2.367188 -11.117188 2.453125 -11.140625 C 2.546875 -11.171875 2.644531 -11.1875 2.75 -11.1875 L 10.84375 -11.1875 C 11.082031 -11.1875 11.257812 -11.128906 11.375 -11.015625 C 11.488281 -10.910156 11.546875 -10.734375 11.546875 -10.484375 L 11.546875 -8.625 C 11.546875 -8.5 11.523438 -8.390625 11.484375 -8.296875 C 11.453125 -8.203125 11.398438 -8.125 11.328125 -8.0625 L 9.328125 -6.40625 C 9.296875 -6.363281 9.234375 -6.328125 9.140625 -6.296875 C 9.054688 -6.265625 8.960938 -6.25 8.859375 -6.25 L 8.734375 -6.25 L 8.734375 -0.546875 C 8.734375 -0.421875 8.710938 -0.3125 8.671875 -0.21875 C 8.640625 -0.125 8.585938 -0.046875 8.515625 0.015625 L 6.53125 1.671875 C 6.488281 1.710938 6.421875 1.75 6.328125 1.78125 C 6.242188 1.8125 6.148438 1.828125 6.046875 1.828125 Z M 8.03125 0 C 8.226562 0 8.367188 -0.0390625 8.453125 -0.125 C 8.535156 -0.21875 8.578125 -0.359375 8.578125 -0.546875 L 8.578125 -8.078125 L 10.84375 -8.078125 C 11.03125 -8.078125 11.164062 -8.117188 11.25 -8.203125 C 11.34375 -8.296875 11.390625 -8.4375 11.390625 -8.625 L 11.390625 -10.484375 C 11.390625 -10.679688 11.34375 -10.820312 11.25 -10.90625 C 11.164062 -10.988281 11.03125 -11.03125 10.84375 -11.03125 L 2.75 -11.03125 C 2.550781 -11.03125 2.40625 -10.988281 2.3125 -10.90625 C 2.226562 -10.820312 2.1875 -10.679688 2.1875 -10.484375 L 2.1875 -8.625 C 2.1875 -8.4375 2.226562 -8.296875 2.3125 -8.203125 C 2.40625 -8.117188 2.550781 -8.078125 2.75 -8.078125 L 5 -8.078125 L 5 -0.546875 C 5 -0.359375 5.039062 -0.21875 5.125 -0.125 C 5.207031 -0.0390625 5.347656 0 5.546875 0 Z M 6.71875 -1.375 L 6.71875 -9.5 L 3.578125 -9.5 L 3.578125 -9.65625 L 10.015625 -9.65625 L 10.015625 -9.5 L 6.859375 -9.5 L 6.859375 -1.375 Z M 6.71875 -1.375 "/></g></g></g><g fill="#fab425" fill-opacity="1"><g transform="translate(67.732133, 40.493204)"><g><path d="M 4.46875 -1.375 L 4.46875 -9.65625 L 4.625 -9.65625 L 4.625 -5.59375 L 10.515625 -5.59375 L 10.515625 -9.65625 L 10.671875 -9.65625 L 10.671875 -1.375 L 10.515625 -1.375 L 10.515625 -5.4375 L 4.625 -5.4375 L 4.625 -1.375 Z M 5.75 0 C 5.945312 0 6.085938 -0.0390625 6.171875 -0.125 C 6.253906 -0.21875 6.296875 -0.359375 6.296875 -0.546875 L 6.296875 -3.953125 L 8.859375 -3.953125 L 8.859375 -0.546875 C 8.859375 -0.359375 8.898438 -0.21875 8.984375 -0.125 C 9.078125 -0.0390625 9.21875 0 9.40625 0 L 11.78125 0 C 11.976562 0 12.117188 -0.0390625 12.203125 -0.125 C 12.296875 -0.21875 12.34375 -0.359375 12.34375 -0.546875 L 12.34375 -10.484375 C 12.34375 -10.679688 12.296875 -10.820312 12.203125 -10.90625 C 12.117188 -10.988281 11.976562 -11.03125 11.78125 -11.03125 L 9.40625 -11.03125 C 9.21875 -11.03125 9.078125 -10.988281 8.984375 -10.90625 C 8.898438 -10.820312 8.859375 -10.679688 8.859375 -10.484375 L 8.859375 -7.15625 L 6.296875 -7.15625 L 6.296875 -10.484375 C 6.296875 -10.679688 6.253906 -10.820312 6.171875 -10.90625 C 6.085938 -10.988281 5.945312 -11.03125 5.75 -11.03125 L 3.375 -11.03125 C 3.175781 -11.03125 3.035156 -10.988281 2.953125 -10.90625 C 2.867188 -10.820312 2.828125 -10.679688 2.828125 -10.484375 L 2.828125 -0.546875 C 2.828125 -0.359375 2.867188 -0.21875 2.953125 -0.125 C 3.035156 -0.0390625 3.175781 0 3.375 0 Z M 6.234375 0.015625 L 4.25 1.671875 C 4.207031 1.710938 4.140625 1.75 4.046875 1.78125 C 3.960938 1.8125 3.867188 1.828125 3.765625 1.828125 L 1.390625 1.828125 C 1.148438 1.828125 0.972656 1.769531 0.859375 1.65625 C 0.742188 1.539062 0.6875 1.363281 0.6875 1.125 L 0.6875 -8.8125 C 0.6875 -8.945312 0.703125 -9.054688 0.734375 -9.140625 C 0.773438 -9.234375 0.832031 -9.3125 0.90625 -9.375 L 2.875 -11.046875 C 2.925781 -11.085938 2.992188 -11.117188 3.078125 -11.140625 C 3.171875 -11.171875 3.269531 -11.1875 3.375 -11.1875 L 5.75 -11.1875 C 5.988281 -11.1875 6.164062 -11.128906 6.28125 -11.015625 C 6.394531 -10.910156 6.453125 -10.734375 6.453125 -10.484375 L 6.453125 -7.3125 L 6.734375 -7.3125 L 6.734375 -8.8125 C 6.734375 -8.945312 6.75 -9.054688 6.78125 -9.140625 C 6.820312 -9.234375 6.875 -9.3125 6.9375 -9.375 L 8.921875 -11.046875 C 8.972656 -11.085938 9.039062 -11.117188 9.125 -11.140625 C 9.21875 -11.171875 9.3125 -11.1875 9.40625 -11.1875 L 11.78125 -11.1875 C 12.03125 -11.1875 12.210938 -11.128906 12.328125 -11.015625 C 12.441406 -10.910156 12.5 -10.734375 12.5 -10.484375 L 12.5 -0.546875 C 12.5 -0.421875 12.476562 -0.3125 12.4375 -0.21875 C 12.40625 -0.125 12.351562 -0.046875 12.28125 0.015625 L 10.28125 1.671875 C 10.238281 1.710938 10.175781 1.75 10.09375 1.78125 C 10.007812 1.8125 9.914062 1.828125 9.8125 1.828125 L 7.4375 1.828125 C 7.1875 1.828125 7.003906 1.769531 6.890625 1.65625 C 6.785156 1.539062 6.734375 1.363281 6.734375 1.125 L 6.734375 -2.125 L 6.453125 -2.125 L 6.453125 -0.546875 C 6.453125 -0.421875 6.429688 -0.3125 6.390625 -0.21875 C 6.359375 -0.125 6.304688 -0.046875 6.234375 0.015625 Z M 6.234375 0.015625 "/></g></g></g><g fill="#fab425" fill-opacity="1"><g transform="translate(81.961767, 40.493204)"><g><path d="M 5.640625 5.5 L 3.21875 5.5 C 2.96875 5.5 2.785156 5.441406 2.671875 5.328125 C 2.566406 5.222656 2.515625 5.046875 2.515625 4.796875 L 2.515625 2.84375 C 2.515625 2.71875 2.53125 2.609375 2.5625 2.515625 C 2.601562 2.421875 2.660156 2.34375 2.734375 2.28125 L 3.28125 1.828125 L 1.15625 1.828125 C 0.90625 1.828125 0.722656 1.769531 0.609375 1.65625 C 0.492188 1.539062 0.4375 1.363281 0.4375 1.125 L 0.4375 -0.703125 C 0.4375 -0.835938 0.453125 -0.953125 0.484375 -1.046875 C 0.523438 -1.140625 0.582031 -1.210938 0.65625 -1.265625 L 2.515625 -2.828125 L 2.515625 -6.25 L 1.15625 -6.25 C 0.90625 -6.25 0.722656 -6.304688 0.609375 -6.421875 C 0.492188 -6.535156 0.4375 -6.710938 0.4375 -6.953125 L 0.4375 -8.8125 C 0.4375 -8.945312 0.453125 -9.054688 0.484375 -9.140625 C 0.523438 -9.234375 0.582031 -9.3125 0.65625 -9.375 L 2.640625 -11.046875 C 2.691406 -11.085938 2.757812 -11.117188 2.84375 -11.140625 C 2.925781 -11.171875 3.019531 -11.1875 3.125 -11.1875 L 9.65625 -11.1875 C 9.90625 -11.1875 10.082031 -11.128906 10.1875 -11.015625 C 10.300781 -10.910156 10.359375 -10.734375 10.359375 -10.484375 L 10.359375 -8.625 C 10.359375 -8.5 10.335938 -8.390625 10.296875 -8.296875 C 10.265625 -8.203125 10.210938 -8.125 10.140625 -8.0625 L 8.328125 -6.53125 L 8.328125 -3.078125 L 9.65625 -3.078125 C 9.90625 -3.078125 10.082031 -3.019531 10.1875 -2.90625 C 10.300781 -2.800781 10.359375 -2.625 10.359375 -2.375 L 10.359375 -0.546875 C 10.359375 -0.421875 10.335938 -0.3125 10.296875 -0.21875 C 10.265625 -0.125 10.210938 -0.046875 10.140625 0.015625 L 8.328125 1.53125 L 8.328125 3.125 C 8.328125 3.257812 8.304688 3.375 8.265625 3.46875 C 8.234375 3.5625 8.179688 3.632812 8.109375 3.6875 L 6.109375 5.34375 C 6.066406 5.382812 6.003906 5.421875 5.921875 5.453125 C 5.835938 5.484375 5.742188 5.5 5.640625 5.5 Z M 3.125 0 L 9.65625 0 C 9.851562 0 9.992188 -0.0390625 10.078125 -0.125 C 10.160156 -0.21875 10.203125 -0.359375 10.203125 -0.546875 L 10.203125 -2.375 C 10.203125 -2.570312 10.160156 -2.710938 10.078125 -2.796875 C 9.992188 -2.878906 9.851562 -2.921875 9.65625 -2.921875 L 8.171875 -2.921875 L 8.171875 -8.078125 L 9.65625 -8.078125 C 9.851562 -8.078125 9.992188 -8.117188 10.078125 -8.203125 C 10.160156 -8.296875 10.203125 -8.4375 10.203125 -8.625 L 10.203125 -10.484375 C 10.203125 -10.679688 10.160156 -10.820312 10.078125 -10.90625 C 9.992188 -10.988281 9.851562 -11.03125 9.65625 -11.03125 L 3.125 -11.03125 C 2.925781 -11.03125 2.785156 -10.988281 2.703125 -10.90625 C 2.617188 -10.820312 2.578125 -10.679688 2.578125 -10.484375 L 2.578125 -8.625 C 2.578125 -8.4375 2.617188 -8.296875 2.703125 -8.203125 C 2.785156 -8.117188 2.925781 -8.078125 3.125 -8.078125 L 4.640625 -8.078125 L 4.640625 -2.921875 L 3.125 -2.921875 C 2.925781 -2.921875 2.785156 -2.878906 2.703125 -2.796875 C 2.617188 -2.710938 2.578125 -2.570312 2.578125 -2.375 L 2.578125 -0.546875 C 2.578125 -0.359375 2.617188 -0.21875 2.703125 -0.125 C 2.785156 -0.0390625 2.925781 0 3.125 0 Z M 8.828125 -1.375 L 3.953125 -1.375 L 3.953125 -1.53125 L 6.328125 -1.53125 L 6.328125 -9.5 L 3.953125 -9.5 L 3.953125 -9.65625 L 8.828125 -9.65625 L 8.828125 -9.5 L 6.484375 -9.5 L 6.484375 -1.53125 L 8.828125 -1.53125 Z M 7.625 3.671875 C 7.8125 3.671875 7.945312 3.628906 8.03125 3.546875 C 8.125 3.460938 8.171875 3.320312 8.171875 3.125 L 8.171875 1.1875 C 8.171875 0.988281 8.125 0.84375 8.03125 0.75 C 7.945312 0.664062 7.8125 0.625 7.625 0.625 L 5.203125 0.625 C 5.003906 0.625 4.859375 0.664062 4.765625 0.75 C 4.679688 0.84375 4.640625 0.988281 4.640625 1.1875 L 4.640625 3.125 C 4.640625 3.320312 4.679688 3.460938 4.765625 3.546875 C 4.859375 3.628906 5.003906 3.671875 5.203125 3.671875 Z M 6.484375 2.609375 L 6.328125 2.609375 L 6.328125 1.703125 L 6.484375 1.703125 Z M 6.484375 2.609375 "/></g></g></g><g fill="#fab425" fill-opacity="1"><g transform="translate(93.832659, 40.493204)"><g><path d="M 4.84375 -9.53125 L 10.484375 -3.1875 L 10.484375 -9.65625 L 10.640625 -9.65625 L 10.640625 -1.375 L 10.484375 -1.375 L 10.484375 -2.953125 L 4.6875 -9.453125 C 4.675781 -9.460938 4.660156 -9.472656 4.640625 -9.484375 C 4.628906 -9.492188 4.617188 -9.5 4.609375 -9.5 C 4.597656 -9.5 4.585938 -9.492188 4.578125 -9.484375 C 4.578125 -9.472656 4.578125 -9.460938 4.578125 -9.453125 L 4.578125 -1.375 L 4.4375 -1.375 L 4.4375 -9.484375 C 4.4375 -9.546875 4.453125 -9.59375 4.484375 -9.625 C 4.523438 -9.65625 4.566406 -9.671875 4.609375 -9.671875 C 4.648438 -9.671875 4.6875 -9.660156 4.71875 -9.640625 C 4.75 -9.617188 4.789062 -9.582031 4.84375 -9.53125 Z M 5.671875 0 C 5.867188 0 6.007812 -0.0390625 6.09375 -0.125 C 6.175781 -0.21875 6.21875 -0.359375 6.21875 -0.546875 L 6.21875 -5.609375 L 8.84375 -2.4375 L 8.84375 -0.546875 C 8.84375 -0.359375 8.882812 -0.21875 8.96875 -0.125 C 9.0625 -0.0390625 9.203125 0 9.390625 0 L 11.703125 0 C 11.890625 0 12.023438 -0.0390625 12.109375 -0.125 C 12.203125 -0.21875 12.25 -0.359375 12.25 -0.546875 L 12.25 -10.484375 C 12.25 -10.679688 12.203125 -10.820312 12.109375 -10.90625 C 12.023438 -10.988281 11.890625 -11.03125 11.703125 -11.03125 L 9.390625 -11.03125 C 9.203125 -11.03125 9.0625 -10.988281 8.96875 -10.90625 C 8.882812 -10.820312 8.84375 -10.679688 8.84375 -10.484375 L 8.84375 -7.21875 L 5.875 -10.625 C 5.738281 -10.78125 5.597656 -10.882812 5.453125 -10.9375 C 5.316406 -11 5.15625 -11.03125 4.96875 -11.03125 L 3.375 -11.03125 C 3.175781 -11.03125 3.035156 -10.988281 2.953125 -10.90625 C 2.867188 -10.820312 2.828125 -10.679688 2.828125 -10.484375 L 2.828125 -0.546875 C 2.828125 -0.359375 2.867188 -0.21875 2.953125 -0.125 C 3.035156 -0.0390625 3.175781 0 3.375 0 Z M 6.15625 0.015625 L 4.171875 1.671875 C 4.128906 1.710938 4.0625 1.75 3.96875 1.78125 C 3.882812 1.8125 3.789062 1.828125 3.6875 1.828125 L 1.390625 1.828125 C 1.148438 1.828125 0.972656 1.769531 0.859375 1.65625 C 0.742188 1.539062 0.6875 1.363281 0.6875 1.125 L 0.6875 -8.8125 C 0.6875 -8.945312 0.703125 -9.054688 0.734375 -9.140625 C 0.773438 -9.234375 0.832031 -9.3125 0.90625 -9.375 L 2.875 -11.046875 C 2.925781 -11.085938 2.992188 -11.117188 3.078125 -11.140625 C 3.171875 -11.171875 3.269531 -11.1875 3.375 -11.1875 L 4.96875 -11.1875 C 5.1875 -11.1875 5.375 -11.148438 5.53125 -11.078125 C 5.6875 -11.003906 5.84375 -10.890625 6 -10.734375 L 7.046875 -9.5 L 8.90625 -11.046875 C 8.957031 -11.085938 9.023438 -11.117188 9.109375 -11.140625 C 9.203125 -11.171875 9.296875 -11.1875 9.390625 -11.1875 L 11.703125 -11.1875 C 11.941406 -11.1875 12.117188 -11.128906 12.234375 -11.015625 C 12.347656 -10.910156 12.40625 -10.734375 12.40625 -10.484375 L 12.40625 -0.546875 C 12.40625 -0.421875 12.382812 -0.3125 12.34375 -0.21875 C 12.3125 -0.125 12.257812 -0.046875 12.1875 0.015625 L 10.1875 1.671875 C 10.144531 1.710938 10.082031 1.75 10 1.78125 C 9.914062 1.8125 9.820312 1.828125 9.71875 1.828125 L 7.421875 1.828125 C 7.171875 1.828125 6.988281 1.769531 6.875 1.65625 C 6.769531 1.539062 6.71875 1.363281 6.71875 1.125 L 6.71875 -0.703125 L 6.375 -1.125 L 6.375 -0.546875 C 6.375 -0.421875 6.351562 -0.3125 6.3125 -0.21875 C 6.28125 -0.125 6.226562 -0.046875 6.15625 0.015625 Z M 6.15625 0.015625 "/></g></g></g><g fill="#fab425" fill-opacity="1"><g transform="translate(107.970398, 40.493204)"><g><path d="M 4.46875 -1.375 L 4.46875 -9.65625 L 4.625 -9.65625 L 4.625 -5.59375 L 10.515625 -5.59375 L 10.515625 -9.65625 L 10.671875 -9.65625 L 10.671875 -1.375 L 10.515625 -1.375 L 10.515625 -5.4375 L 4.625 -5.4375 L 4.625 -1.375 Z M 5.75 0 C 5.945312 0 6.085938 -0.0390625 6.171875 -0.125 C 6.253906 -0.21875 6.296875 -0.359375 6.296875 -0.546875 L 6.296875 -3.953125 L 8.859375 -3.953125 L 8.859375 -0.546875 C 8.859375 -0.359375 8.898438 -0.21875 8.984375 -0.125 C 9.078125 -0.0390625 9.21875 0 9.40625 0 L 11.78125 0 C 11.976562 0 12.117188 -0.0390625 12.203125 -0.125 C 12.296875 -0.21875 12.34375 -0.359375 12.34375 -0.546875 L 12.34375 -10.484375 C 12.34375 -10.679688 12.296875 -10.820312 12.203125 -10.90625 C 12.117188 -10.988281 11.976562 -11.03125 11.78125 -11.03125 L 9.40625 -11.03125 C 9.21875 -11.03125 9.078125 -10.988281 8.984375 -10.90625 C 8.898438 -10.820312 8.859375 -10.679688 8.859375 -10.484375 L 8.859375 -7.15625 L 6.296875 -7.15625 L 6.296875 -10.484375 C 6.296875 -10.679688 6.253906 -10.820312 6.171875 -10.90625 C 6.085938 -10.988281 5.945312 -11.03125 5.75 -11.03125 L 3.375 -11.03125 C 3.175781 -11.03125 3.035156 -10.988281 2.953125 -10.90625 C 2.867188 -10.820312 2.828125 -10.679688 2.828125 -10.484375 L 2.828125 -0.546875 C 2.828125 -0.359375 2.867188 -0.21875 2.953125 -0.125 C 3.035156 -0.0390625 3.175781 0 3.375 0 Z M 6.234375 0.015625 L 4.25 1.671875 C 4.207031 1.710938 4.140625 1.75 4.046875 1.78125 C 3.960938 1.8125 3.867188 1.828125 3.765625 1.828125 L 1.390625 1.828125 C 1.148438 1.828125 0.972656 1.769531 0.859375 1.65625 C 0.742188 1.539062 0.6875 1.363281 0.6875 1.125 L 0.6875 -8.8125 C 0.6875 -8.945312 0.703125 -9.054688 0.734375 -9.140625 C 0.773438 -9.234375 0.832031 -9.3125 0.90625 -9.375 L 2.875 -11.046875 C 2.925781 -11.085938 2.992188 -11.117188 3.078125 -11.140625 C 3.171875 -11.171875 3.269531 -11.1875 3.375 -11.1875 L 5.75 -11.1875 C 5.988281 -11.1875 6.164062 -11.128906 6.28125 -11.015625 C 6.394531 -10.910156 6.453125 -10.734375 6.453125 -10.484375 L 6.453125 -7.3125 L 6.734375 -7.3125 L 6.734375 -8.8125 C 6.734375 -8.945312 6.75 -9.054688 6.78125 -9.140625 C 6.820312 -9.234375 6.875 -9.3125 6.9375 -9.375 L 8.921875 -11.046875 C 8.972656 -11.085938 9.039062 -11.117188 9.125 -11.140625 C 9.21875 -11.171875 9.3125 -11.1875 9.40625 -11.1875 L 11.78125 -11.1875 C 12.03125 -11.1875 12.210938 -11.128906 12.328125 -11.015625 C 12.441406 -10.910156 12.5 -10.734375 12.5 -10.484375 L 12.5 -0.546875 C 12.5 -0.421875 12.476562 -0.3125 12.4375 -0.21875 C 12.40625 -0.125 12.351562 -0.046875 12.28125 0.015625 L 10.28125 1.671875 C 10.238281 1.710938 10.175781 1.75 10.09375 1.78125 C 10.007812 1.8125 9.914062 1.828125 9.8125 1.828125 L 7.4375 1.828125 C 7.1875 1.828125 7.003906 1.769531 6.890625 1.65625 C 6.785156 1.539062 6.734375 1.363281 6.734375 1.125 L 6.734375 -2.125 L 6.453125 -2.125 L 6.453125 -0.546875 C 6.453125 -0.421875 6.429688 -0.3125 6.390625 -0.21875 C 6.359375 -0.125 6.304688 -0.046875 6.234375 0.015625 Z M 6.234375 0.015625 "/></g></g></g><g fill="#fab425" fill-opacity="1"><g transform="translate(122.200032, 40.493204)"><g/></g></g><g fill="#fab425" fill-opacity="1"><g transform="translate(128.250665, 40.493204)"><g><path d="M 3.765625 1.828125 L 1.390625 1.828125 C 1.148438 1.828125 0.972656 1.769531 0.859375 1.65625 C 0.742188 1.539062 0.6875 1.363281 0.6875 1.125 L 0.6875 -8.8125 C 0.6875 -8.945312 0.703125 -9.054688 0.734375 -9.140625 C 0.773438 -9.234375 0.832031 -9.3125 0.90625 -9.375 L 2.875 -11.046875 C 2.925781 -11.085938 2.992188 -11.117188 3.078125 -11.140625 C 3.171875 -11.171875 3.269531 -11.1875 3.375 -11.1875 L 8.0625 -11.1875 C 8.789062 -11.1875 9.398438 -11.109375 9.890625 -10.953125 C 10.378906 -10.804688 10.765625 -10.59375 11.046875 -10.3125 C 11.335938 -10.039062 11.539062 -9.707031 11.65625 -9.3125 C 11.769531 -8.925781 11.828125 -8.503906 11.828125 -8.046875 L 11.828125 -6.078125 C 11.828125 -5.585938 11.757812 -5.140625 11.625 -4.734375 C 11.488281 -4.335938 11.25 -3.992188 10.90625 -3.703125 L 8.921875 -2.046875 C 8.660156 -1.835938 8.328125 -1.660156 7.921875 -1.515625 C 7.523438 -1.378906 7.035156 -1.300781 6.453125 -1.28125 L 6.453125 -0.546875 C 6.453125 -0.421875 6.429688 -0.3125 6.390625 -0.21875 C 6.359375 -0.125 6.304688 -0.046875 6.234375 0.015625 L 4.25 1.671875 C 4.207031 1.710938 4.140625 1.75 4.046875 1.78125 C 3.960938 1.8125 3.867188 1.828125 3.765625 1.828125 Z M 5.75 0 C 5.945312 0 6.085938 -0.0390625 6.171875 -0.125 C 6.253906 -0.21875 6.296875 -0.359375 6.296875 -0.546875 L 6.296875 -3.09375 L 8.0625 -3.09375 C 9.445312 -3.09375 10.394531 -3.367188 10.90625 -3.921875 C 11.425781 -4.472656 11.6875 -5.191406 11.6875 -6.078125 L 11.6875 -8.046875 C 11.6875 -8.929688 11.425781 -9.648438 10.90625 -10.203125 C 10.394531 -10.753906 9.445312 -11.03125 8.0625 -11.03125 L 3.375 -11.03125 C 3.175781 -11.03125 3.035156 -10.988281 2.953125 -10.90625 C 2.867188 -10.820312 2.828125 -10.679688 2.828125 -10.484375 L 2.828125 -0.546875 C 2.828125 -0.359375 2.867188 -0.21875 2.953125 -0.125 C 3.035156 -0.0390625 3.175781 0 3.375 0 Z M 7.84375 -4.40625 L 4.6875 -4.40625 L 4.6875 -1.375 L 4.53125 -1.375 L 4.53125 -9.65625 L 7.84375 -9.65625 C 8.320312 -9.65625 8.710938 -9.597656 9.015625 -9.484375 C 9.316406 -9.378906 9.550781 -9.234375 9.71875 -9.046875 C 9.882812 -8.867188 9.992188 -8.648438 10.046875 -8.390625 C 10.109375 -8.140625 10.140625 -7.867188 10.140625 -7.578125 L 10.140625 -6.4375 C 10.140625 -6.144531 10.109375 -5.875 10.046875 -5.625 C 9.992188 -5.375 9.882812 -5.15625 9.71875 -4.96875 C 9.550781 -4.789062 9.316406 -4.648438 9.015625 -4.546875 C 8.710938 -4.453125 8.320312 -4.40625 7.84375 -4.40625 Z M 4.6875 -4.546875 L 7.84375 -4.546875 C 8.289062 -4.546875 8.65625 -4.59375 8.9375 -4.6875 C 9.21875 -4.78125 9.4375 -4.910156 9.59375 -5.078125 C 9.75 -5.242188 9.851562 -5.441406 9.90625 -5.671875 C 9.96875 -5.910156 10 -6.164062 10 -6.4375 L 10 -7.578125 C 10 -7.847656 9.96875 -8.097656 9.90625 -8.328125 C 9.851562 -8.566406 9.75 -8.773438 9.59375 -8.953125 C 9.4375 -9.128906 9.21875 -9.265625 8.9375 -9.359375 C 8.65625 -9.453125 8.289062 -9.5 7.84375 -9.5 L 4.6875 -9.5 Z M 6.265625 -8.171875 L 7.65625 -8.171875 C 7.945312 -8.171875 8.140625 -8.09375 8.234375 -7.9375 C 8.328125 -7.78125 8.375 -7.609375 8.375 -7.421875 L 8.375 -6.609375 C 8.375 -6.410156 8.328125 -6.234375 8.234375 -6.078125 C 8.140625 -5.929688 7.945312 -5.859375 7.65625 -5.859375 L 6.265625 -5.859375 Z M 6.265625 -8.171875 "/></g></g></g><g fill="#fab425" fill-opacity="1"><g transform="translate(141.300928, 40.493204)"><g><path d="M 4.46875 -1.375 L 4.46875 -9.65625 L 4.625 -9.65625 L 4.625 -5.59375 L 10.515625 -5.59375 L 10.515625 -9.65625 L 10.671875 -9.65625 L 10.671875 -1.375 L 10.515625 -1.375 L 10.515625 -5.4375 L 4.625 -5.4375 L 4.625 -1.375 Z M 5.75 0 C 5.945312 0 6.085938 -0.0390625 6.171875 -0.125 C 6.253906 -0.21875 6.296875 -0.359375 6.296875 -0.546875 L 6.296875 -3.953125 L 8.859375 -3.953125 L 8.859375 -0.546875 C 8.859375 -0.359375 8.898438 -0.21875 8.984375 -0.125 C 9.078125 -0.0390625 9.21875 0 9.40625 0 L 11.78125 0 C 11.976562 0 12.117188 -0.0390625 12.203125 -0.125 C 12.296875 -0.21875 12.34375 -0.359375 12.34375 -0.546875 L 12.34375 -10.484375 C 12.34375 -10.679688 12.296875 -10.820312 12.203125 -10.90625 C 12.117188 -10.988281 11.976562 -11.03125 11.78125 -11.03125 L 9.40625 -11.03125 C 9.21875 -11.03125 9.078125 -10.988281 8.984375 -10.90625 C 8.898438 -10.820312 8.859375 -10.679688 8.859375 -10.484375 L 8.859375 -7.15625 L 6.296875 -7.15625 L 6.296875 -10.484375 C 6.296875 -10.679688 6.253906 -10.820312 6.171875 -10.90625 C 6.085938 -10.988281 5.945312 -11.03125 5.75 -11.03125 L 3.375 -11.03125 C 3.175781 -11.03125 3.035156 -10.988281 2.953125 -10.90625 C 2.867188 -10.820312 2.828125 -10.679688 2.828125 -10.484375 L 2.828125 -0.546875 C 2.828125 -0.359375 2.867188 -0.21875 2.953125 -0.125 C 3.035156 -0.0390625 3.175781 0 3.375 0 Z M 6.234375 0.015625 L 4.25 1.671875 C 4.207031 1.710938 4.140625 1.75 4.046875 1.78125 C 3.960938 1.8125 3.867188 1.828125 3.765625 1.828125 L 1.390625 1.828125 C 1.148438 1.828125 0.972656 1.769531 0.859375 1.65625 C 0.742188 1.539062 0.6875 1.363281 0.6875 1.125 L 0.6875 -8.8125 C 0.6875 -8.945312 0.703125 -9.054688 0.734375 -9.140625 C 0.773438 -9.234375 0.832031 -9.3125 0.90625 -9.375 L 2.875 -11.046875 C 2.925781 -11.085938 2.992188 -11.117188 3.078125 -11.140625 C 3.171875 -11.171875 3.269531 -11.1875 3.375 -11.1875 L 5.75 -11.1875 C 5.988281 -11.1875 6.164062 -11.128906 6.28125 -11.015625 C 6.394531 -10.910156 6.453125 -10.734375 6.453125 -10.484375 L 6.453125 -7.3125 L 6.734375 -7.3125 L 6.734375 -8.8125 C 6.734375 -8.945312 6.75 -9.054688 6.78125 -9.140625 C 6.820312 -9.234375 6.875 -9.3125 6.9375 -9.375 L 8.921875 -11.046875 C 8.972656 -11.085938 9.039062 -11.117188 9.125 -11.140625 C 9.21875 -11.171875 9.3125 -11.1875 9.40625 -11.1875 L 11.78125 -11.1875 C 12.03125 -11.1875 12.210938 -11.128906 12.328125 -11.015625 C 12.441406 -10.910156 12.5 -10.734375 12.5 -10.484375 L 12.5 -0.546875 C 12.5 -0.421875 12.476562 -0.3125 12.4375 -0.21875 C 12.40625 -0.125 12.351562 -0.046875 12.28125 0.015625 L 10.28125 1.671875 C 10.238281 1.710938 10.175781 1.75 10.09375 1.78125 C 10.007812 1.8125 9.914062 1.828125 9.8125 1.828125 L 7.4375 1.828125 C 7.1875 1.828125 7.003906 1.769531 6.890625 1.65625 C 6.785156 1.539062 6.734375 1.363281 6.734375 1.125 L 6.734375 -2.125 L 6.453125 -2.125 L 6.453125 -0.546875 C 6.453125 -0.421875 6.429688 -0.3125 6.390625 -0.21875 C 6.359375 -0.125 6.304688 -0.046875 6.234375 0.015625 Z M 6.234375 0.015625 "/></g></g></g><g fill="#fab425" fill-opacity="1"><g transform="translate(155.530562, 40.493204)"><g><path d="M 10.015625 -12.203125 C 10.203125 -12.222656 10.335938 -12.269531 10.421875 -12.34375 C 10.515625 -12.425781 10.5625 -12.5625 10.5625 -12.75 L 10.5625 -14.21875 C 10.5625 -14.394531 10.515625 -14.53125 10.421875 -14.625 C 10.335938 -14.71875 10.210938 -14.753906 10.046875 -14.734375 L 4.6875 -14.078125 C 4.5 -14.054688 4.359375 -14.003906 4.265625 -13.921875 C 4.179688 -13.847656 4.140625 -13.710938 4.140625 -13.515625 L 4.140625 -12.046875 C 4.140625 -11.867188 4.179688 -11.734375 4.265625 -11.640625 C 4.359375 -11.554688 4.488281 -11.523438 4.65625 -11.546875 Z M 5.515625 -12.984375 L 9.1875 -13.4375 L 9.1875 -13.296875 L 5.515625 -12.828125 Z M 4.375 -4.640625 L 4.375 -4.171875 L 10.34375 -4.171875 L 10.34375 -4.640625 C 10.34375 -4.921875 10.316406 -5.175781 10.265625 -5.40625 C 10.222656 -5.644531 10.164062 -5.863281 10.09375 -6.0625 L 9.046875 -8.5625 C 8.929688 -8.832031 8.8125 -9.054688 8.6875 -9.234375 C 8.5625 -9.410156 8.359375 -9.5 8.078125 -9.5 L 6.578125 -9.5 C 6.265625 -9.5 6.046875 -9.410156 5.921875 -9.234375 C 5.804688 -9.054688 5.695312 -8.835938 5.59375 -8.578125 L 4.609375 -6.0625 C 4.535156 -5.863281 4.476562 -5.644531 4.4375 -5.40625 C 4.394531 -5.175781 4.375 -4.921875 4.375 -4.640625 Z M 6.828125 -7.8125 C 6.859375 -7.90625 6.894531 -7.972656 6.9375 -8.015625 C 6.988281 -8.054688 7.046875 -8.078125 7.109375 -8.078125 L 7.5 -8.078125 C 7.5625 -8.078125 7.613281 -8.054688 7.65625 -8.015625 C 7.695312 -7.972656 7.738281 -7.90625 7.78125 -7.8125 L 8.5 -5.484375 L 6.09375 -5.484375 Z M 10.34375 -1.375 L 10.34375 -4.015625 L 4.375 -4.015625 L 4.375 -1.375 L 4.21875 -1.375 L 4.21875 -4.640625 C 4.21875 -4.929688 4.238281 -5.195312 4.28125 -5.4375 C 4.332031 -5.675781 4.394531 -5.90625 4.46875 -6.125 L 5.453125 -8.640625 C 5.566406 -8.929688 5.691406 -9.171875 5.828125 -9.359375 C 5.972656 -9.554688 6.222656 -9.65625 6.578125 -9.65625 L 8.078125 -9.65625 C 8.410156 -9.65625 8.644531 -9.554688 8.78125 -9.359375 C 8.925781 -9.171875 9.0625 -8.925781 9.1875 -8.625 L 10.234375 -6.125 C 10.316406 -5.90625 10.378906 -5.675781 10.421875 -5.4375 C 10.472656 -5.195312 10.5 -4.929688 10.5 -4.640625 L 10.5 -1.375 Z M 5.953125 -0.546875 L 5.953125 -2.703125 L 8.65625 -2.703125 L 8.65625 -0.546875 C 8.65625 -0.359375 8.703125 -0.21875 8.796875 -0.125 C 8.898438 -0.0390625 9.054688 0 9.265625 0 L 11.578125 0 C 11.765625 0 11.898438 -0.0390625 11.984375 -0.125 C 12.078125 -0.21875 12.125 -0.359375 12.125 -0.546875 L 12.125 -4.59375 C 12.125 -4.90625 12.070312 -5.257812 11.96875 -5.65625 C 11.875 -6.050781 11.726562 -6.515625 11.53125 -7.046875 L 10.1875 -10.53125 C 10.125 -10.707031 10.03125 -10.832031 9.90625 -10.90625 C 9.78125 -10.988281 9.617188 -11.03125 9.421875 -11.03125 L 5.296875 -11.03125 C 5.097656 -11.03125 4.929688 -10.988281 4.796875 -10.90625 C 4.671875 -10.832031 4.578125 -10.707031 4.515625 -10.53125 L 3.1875 -7.046875 C 2.976562 -6.515625 2.828125 -6.050781 2.734375 -5.65625 C 2.640625 -5.257812 2.59375 -4.90625 2.59375 -4.59375 L 2.59375 -0.546875 C 2.59375 -0.359375 2.632812 -0.21875 2.71875 -0.125 C 2.800781 -0.0390625 2.941406 0 3.140625 0 L 5.390625 0 C 5.585938 0 5.726562 -0.0390625 5.8125 -0.125 C 5.90625 -0.21875 5.953125 -0.359375 5.953125 -0.546875 Z M 3.890625 1.671875 C 3.847656 1.710938 3.785156 1.75 3.703125 1.78125 C 3.617188 1.8125 3.523438 1.828125 3.421875 1.828125 L 1.171875 1.828125 C 0.921875 1.828125 0.738281 1.769531 0.625 1.65625 C 0.507812 1.539062 0.453125 1.363281 0.453125 1.125 L 0.453125 -2.921875 C 0.453125 -3.242188 0.5 -3.601562 0.59375 -4 C 0.695312 -4.40625 0.859375 -4.882812 1.078125 -5.4375 L 2.390625 -8.90625 C 2.421875 -9 2.457031 -9.078125 2.5 -9.140625 C 2.550781 -9.210938 2.601562 -9.269531 2.65625 -9.3125 L 2.671875 -9.328125 L 3.203125 -9.78125 L 2.703125 -9.71875 C 2.472656 -9.6875 2.300781 -9.726562 2.1875 -9.84375 C 2.070312 -9.96875 2.015625 -10.144531 2.015625 -10.375 L 2.015625 -11.84375 C 2.015625 -11.976562 2.03125 -12.085938 2.0625 -12.171875 C 2.09375 -12.265625 2.140625 -12.335938 2.203125 -12.390625 L 4.203125 -14.0625 C 4.242188 -14.101562 4.304688 -14.132812 4.390625 -14.15625 C 4.472656 -14.1875 4.566406 -14.207031 4.671875 -14.21875 L 10.03125 -14.890625 C 10.25 -14.910156 10.414062 -14.863281 10.53125 -14.75 C 10.65625 -14.632812 10.71875 -14.457031 10.71875 -14.21875 L 10.71875 -12.75 C 10.71875 -12.613281 10.695312 -12.5 10.65625 -12.40625 C 10.625 -12.320312 10.570312 -12.257812 10.5 -12.21875 L 9.28125 -11.1875 L 9.421875 -11.1875 C 9.660156 -11.1875 9.851562 -11.132812 10 -11.03125 C 10.144531 -10.9375 10.253906 -10.789062 10.328125 -10.59375 L 11.671875 -7.109375 C 11.878906 -6.554688 12.03125 -6.078125 12.125 -5.671875 C 12.226562 -5.273438 12.28125 -4.914062 12.28125 -4.59375 L 12.28125 -0.546875 C 12.28125 -0.421875 12.257812 -0.3125 12.21875 -0.21875 C 12.1875 -0.125 12.132812 -0.046875 12.0625 0.015625 L 10.078125 1.671875 C 10.035156 1.710938 9.96875 1.75 9.875 1.78125 C 9.789062 1.8125 9.695312 1.828125 9.59375 1.828125 L 7.28125 1.828125 C 7.019531 1.828125 6.828125 1.765625 6.703125 1.640625 C 6.585938 1.523438 6.53125 1.351562 6.53125 1.125 L 6.53125 -0.875 L 6.09375 -0.875 L 6.09375 -0.546875 C 6.09375 -0.421875 6.078125 -0.3125 6.046875 -0.21875 C 6.015625 -0.125 5.960938 -0.046875 5.890625 0.015625 Z M 3.890625 1.671875 "/></g></g></g><g fill="#fab425" fill-opacity="1"><g transform="translate(169.316011, 40.493204)"><g><path d="M 6.046875 1.828125 L 3.578125 1.828125 C 3.328125 1.828125 3.144531 1.769531 3.03125 1.65625 C 2.914062 1.539062 2.859375 1.363281 2.859375 1.125 L 2.859375 -6.25 L 0.765625 -6.25 C 0.523438 -6.25 0.347656 -6.304688 0.234375 -6.421875 C 0.117188 -6.535156 0.0625 -6.710938 0.0625 -6.953125 L 0.0625 -8.8125 C 0.0625 -8.945312 0.078125 -9.054688 0.109375 -9.140625 C 0.148438 -9.234375 0.207031 -9.3125 0.28125 -9.375 L 2.25 -11.046875 C 2.300781 -11.085938 2.367188 -11.117188 2.453125 -11.140625 C 2.546875 -11.171875 2.644531 -11.1875 2.75 -11.1875 L 10.84375 -11.1875 C 11.082031 -11.1875 11.257812 -11.128906 11.375 -11.015625 C 11.488281 -10.910156 11.546875 -10.734375 11.546875 -10.484375 L 11.546875 -8.625 C 11.546875 -8.5 11.523438 -8.390625 11.484375 -8.296875 C 11.453125 -8.203125 11.398438 -8.125 11.328125 -8.0625 L 9.328125 -6.40625 C 9.296875 -6.363281 9.234375 -6.328125 9.140625 -6.296875 C 9.054688 -6.265625 8.960938 -6.25 8.859375 -6.25 L 8.734375 -6.25 L 8.734375 -0.546875 C 8.734375 -0.421875 8.710938 -0.3125 8.671875 -0.21875 C 8.640625 -0.125 8.585938 -0.046875 8.515625 0.015625 L 6.53125 1.671875 C 6.488281 1.710938 6.421875 1.75 6.328125 1.78125 C 6.242188 1.8125 6.148438 1.828125 6.046875 1.828125 Z M 8.03125 0 C 8.226562 0 8.367188 -0.0390625 8.453125 -0.125 C 8.535156 -0.21875 8.578125 -0.359375 8.578125 -0.546875 L 8.578125 -8.078125 L 10.84375 -8.078125 C 11.03125 -8.078125 11.164062 -8.117188 11.25 -8.203125 C 11.34375 -8.296875 11.390625 -8.4375 11.390625 -8.625 L 11.390625 -10.484375 C 11.390625 -10.679688 11.34375 -10.820312 11.25 -10.90625 C 11.164062 -10.988281 11.03125 -11.03125 10.84375 -11.03125 L 2.75 -11.03125 C 2.550781 -11.03125 2.40625 -10.988281 2.3125 -10.90625 C 2.226562 -10.820312 2.1875 -10.679688 2.1875 -10.484375 L 2.1875 -8.625 C 2.1875 -8.4375 2.226562 -8.296875 2.3125 -8.203125 C 2.40625 -8.117188 2.550781 -8.078125 2.75 -8.078125 L 5 -8.078125 L 5 -0.546875 C 5 -0.359375 5.039062 -0.21875 5.125 -0.125 C 5.207031 -0.0390625 5.347656 0 5.546875 0 Z M 6.71875 -1.375 L 6.71875 -9.5 L 3.578125 -9.5 L 3.578125 -9.65625 L 10.015625 -9.65625 L 10.015625 -9.5 L 6.859375 -9.5 L 6.859375 -1.375 Z M 6.71875 -1.375 "/></g></g></g><g fill="#fab425" fill-opacity="1"><g transform="translate(71.796585, 60.038774)"><g><path d="M 3.328125 0 L 0.71875 0 C 0.613281 0 0.535156 -0.0195312 0.484375 -0.0625 C 0.441406 -0.113281 0.421875 -0.191406 0.421875 -0.296875 L 0.421875 -1.265625 C 0.421875 -1.367188 0.441406 -1.441406 0.484375 -1.484375 C 0.535156 -1.535156 0.613281 -1.5625 0.71875 -1.5625 L 2.9375 -1.5625 C 3.007812 -1.5625 3.0625 -1.582031 3.09375 -1.625 C 3.132812 -1.675781 3.15625 -1.734375 3.15625 -1.796875 C 3.15625 -1.890625 3.132812 -1.957031 3.09375 -2 C 3.0625 -2.050781 3.007812 -2.078125 2.9375 -2.078125 L 1.703125 -2.25 C 1.316406 -2.3125 1.003906 -2.441406 0.765625 -2.640625 C 0.535156 -2.835938 0.421875 -3.164062 0.421875 -3.625 L 0.421875 -4.5 C 0.421875 -4.96875 0.570312 -5.328125 0.875 -5.578125 C 1.175781 -5.828125 1.59375 -5.953125 2.125 -5.953125 L 4.453125 -5.953125 C 4.554688 -5.953125 4.628906 -5.925781 4.671875 -5.875 C 4.722656 -5.832031 4.75 -5.757812 4.75 -5.65625 L 4.75 -4.671875 C 4.75 -4.566406 4.722656 -4.488281 4.671875 -4.4375 C 4.628906 -4.394531 4.554688 -4.375 4.453125 -4.375 L 2.515625 -4.375 C 2.441406 -4.375 2.382812 -4.347656 2.34375 -4.296875 C 2.3125 -4.253906 2.296875 -4.195312 2.296875 -4.125 C 2.296875 -4.050781 2.3125 -3.988281 2.34375 -3.9375 C 2.382812 -3.894531 2.441406 -3.867188 2.515625 -3.859375 L 3.75 -3.6875 C 4.132812 -3.632812 4.445312 -3.507812 4.6875 -3.3125 C 4.925781 -3.113281 5.046875 -2.785156 5.046875 -2.328125 L 5.046875 -1.453125 C 5.046875 -0.984375 4.890625 -0.625 4.578125 -0.375 C 4.273438 -0.125 3.859375 0 3.328125 0 Z M 3.328125 0 "/></g></g></g><g fill="#fab425" fill-opacity="1"><g transform="translate(81.760932, 60.038774)"><g><path d="M 0.734375 0 C 0.628906 0 0.550781 -0.0195312 0.5 -0.0625 C 0.457031 -0.113281 0.4375 -0.191406 0.4375 -0.296875 L 0.4375 -1.28125 C 0.4375 -1.382812 0.457031 -1.457031 0.5 -1.5 C 0.550781 -1.550781 0.628906 -1.578125 0.734375 -1.578125 L 1.546875 -1.578125 L 1.546875 -4.359375 L 0.734375 -4.359375 C 0.628906 -4.359375 0.550781 -4.378906 0.5 -4.421875 C 0.457031 -4.472656 0.4375 -4.550781 0.4375 -4.65625 L 0.4375 -5.65625 C 0.4375 -5.757812 0.457031 -5.832031 0.5 -5.875 C 0.550781 -5.925781 0.628906 -5.953125 0.734375 -5.953125 L 4.25 -5.953125 C 4.351562 -5.953125 4.425781 -5.925781 4.46875 -5.875 C 4.519531 -5.832031 4.546875 -5.757812 4.546875 -5.65625 L 4.546875 -4.65625 C 4.546875 -4.550781 4.519531 -4.472656 4.46875 -4.421875 C 4.425781 -4.378906 4.351562 -4.359375 4.25 -4.359375 L 3.453125 -4.359375 L 3.453125 -1.578125 L 4.25 -1.578125 C 4.351562 -1.578125 4.425781 -1.550781 4.46875 -1.5 C 4.519531 -1.457031 4.546875 -1.382812 4.546875 -1.28125 L 4.546875 -0.296875 C 4.546875 -0.191406 4.519531 -0.113281 4.46875 -0.0625 C 4.425781 -0.0195312 4.351562 0 4.25 0 Z M 0.734375 0 "/></g></g></g><g fill="#fab425" fill-opacity="1"><g transform="translate(91.35348, 60.038774)"><g><path d="M 2.109375 0 L 0.875 0 C 0.757812 0 0.679688 -0.0195312 0.640625 -0.0625 C 0.597656 -0.113281 0.578125 -0.191406 0.578125 -0.296875 L 0.578125 -5.65625 C 0.578125 -5.757812 0.597656 -5.832031 0.640625 -5.875 C 0.679688 -5.925781 0.757812 -5.953125 0.875 -5.953125 L 1.734375 -5.953125 C 1.835938 -5.953125 1.925781 -5.9375 2 -5.90625 C 2.070312 -5.875 2.144531 -5.816406 2.21875 -5.734375 L 3.8125 -3.890625 L 3.8125 -5.65625 C 3.8125 -5.757812 3.832031 -5.832031 3.875 -5.875 C 3.925781 -5.925781 4.003906 -5.953125 4.109375 -5.953125 L 5.359375 -5.953125 C 5.460938 -5.953125 5.535156 -5.925781 5.578125 -5.875 C 5.628906 -5.832031 5.65625 -5.757812 5.65625 -5.65625 L 5.65625 -0.296875 C 5.65625 -0.191406 5.628906 -0.113281 5.578125 -0.0625 C 5.535156 -0.0195312 5.460938 0 5.359375 0 L 4.109375 0 C 4.003906 0 3.925781 -0.0195312 3.875 -0.0625 C 3.832031 -0.113281 3.8125 -0.191406 3.8125 -0.296875 L 3.8125 -1.3125 L 2.40625 -3.03125 L 2.40625 -0.296875 C 2.40625 -0.191406 2.378906 -0.113281 2.328125 -0.0625 C 2.285156 -0.0195312 2.210938 0 2.109375 0 Z M 2.109375 0 "/></g></g></g><g fill="#fab425" fill-opacity="1"><g transform="translate(102.168846, 60.038774)"><g><path d="M 4.53125 0 L 2.515625 0 C 1.828125 0 1.316406 -0.132812 0.984375 -0.40625 C 0.648438 -0.6875 0.484375 -1.113281 0.484375 -1.6875 L 0.484375 -4.25 C 0.484375 -4.820312 0.648438 -5.25 0.984375 -5.53125 C 1.316406 -5.8125 1.828125 -5.953125 2.515625 -5.953125 L 4.53125 -5.953125 C 4.632812 -5.953125 4.707031 -5.925781 4.75 -5.875 C 4.800781 -5.832031 4.828125 -5.757812 4.828125 -5.65625 L 4.828125 -4.65625 C 4.828125 -4.550781 4.800781 -4.472656 4.75 -4.421875 C 4.707031 -4.378906 4.632812 -4.359375 4.53125 -4.359375 L 2.875 -4.359375 C 2.695312 -4.359375 2.566406 -4.320312 2.484375 -4.25 C 2.398438 -4.1875 2.359375 -4.082031 2.359375 -3.9375 L 2.359375 -1.96875 C 2.359375 -1.832031 2.398438 -1.734375 2.484375 -1.671875 C 2.566406 -1.609375 2.695312 -1.578125 2.875 -1.578125 L 4.53125 -1.578125 C 4.632812 -1.578125 4.707031 -1.550781 4.75 -1.5 C 4.800781 -1.457031 4.828125 -1.382812 4.828125 -1.28125 L 4.828125 -0.296875 C 4.828125 -0.191406 4.800781 -0.113281 4.75 -0.0625 C 4.707031 -0.0195312 4.632812 0 4.53125 0 Z M 4.53125 0 "/></g></g></g><g fill="#fab425" fill-opacity="1"><g transform="translate(111.951428, 60.038774)"><g><path d="M 4.703125 0 L 0.875 0 C 0.757812 0 0.679688 -0.0195312 0.640625 -0.0625 C 0.597656 -0.113281 0.578125 -0.191406 0.578125 -0.296875 L 0.578125 -5.65625 C 0.578125 -5.757812 0.597656 -5.832031 0.640625 -5.875 C 0.679688 -5.925781 0.757812 -5.953125 0.875 -5.953125 L 4.703125 -5.953125 C 4.804688 -5.953125 4.878906 -5.925781 4.921875 -5.875 C 4.972656 -5.832031 5 -5.757812 5 -5.65625 L 5 -4.6875 C 5 -4.582031 4.972656 -4.503906 4.921875 -4.453125 C 4.878906 -4.410156 4.804688 -4.390625 4.703125 -4.390625 L 2.421875 -4.390625 L 2.421875 -3.75 L 4.03125 -3.75 C 4.132812 -3.75 4.207031 -3.722656 4.25 -3.671875 C 4.300781 -3.628906 4.328125 -3.554688 4.328125 -3.453125 L 4.328125 -2.578125 C 4.328125 -2.460938 4.300781 -2.378906 4.25 -2.328125 C 4.207031 -2.285156 4.132812 -2.265625 4.03125 -2.265625 L 2.421875 -2.265625 L 2.421875 -1.5625 L 4.703125 -1.5625 C 4.804688 -1.5625 4.878906 -1.535156 4.921875 -1.484375 C 4.972656 -1.441406 5 -1.367188 5 -1.265625 L 5 -0.296875 C 5 -0.191406 4.972656 -0.113281 4.921875 -0.0625 C 4.878906 -0.0195312 4.804688 0 4.703125 0 Z M 4.703125 0 "/></g></g></g><g fill="#fab425" fill-opacity="1"><g transform="translate(121.948827, 60.038774)"><g/></g></g><g fill="#fab425" fill-opacity="1"><g transform="translate(128.401676, 60.038774)"><g><path d="M 4.5625 0 L 0.625 0 C 0.519531 0 0.441406 -0.0195312 0.390625 -0.0625 C 0.347656 -0.113281 0.328125 -0.191406 0.328125 -0.296875 L 0.328125 -1.71875 C 0.328125 -2.039062 0.359375 -2.300781 0.421875 -2.5 C 0.484375 -2.707031 0.570312 -2.878906 0.6875 -3.015625 C 0.8125 -3.148438 0.953125 -3.253906 1.109375 -3.328125 C 1.265625 -3.410156 1.4375 -3.476562 1.625 -3.53125 L 2.734375 -3.875 C 2.828125 -3.894531 2.882812 -3.925781 2.90625 -3.96875 C 2.9375 -4.019531 2.953125 -4.085938 2.953125 -4.171875 C 2.953125 -4.253906 2.9375 -4.3125 2.90625 -4.34375 C 2.875 -4.375 2.816406 -4.390625 2.734375 -4.390625 L 0.9375 -4.390625 C 0.832031 -4.390625 0.753906 -4.410156 0.703125 -4.453125 C 0.660156 -4.503906 0.640625 -4.582031 0.640625 -4.6875 L 0.640625 -5.65625 C 0.640625 -5.757812 0.660156 -5.832031 0.703125 -5.875 C 0.753906 -5.925781 0.832031 -5.953125 0.9375 -5.953125 L 3.375 -5.953125 C 3.84375 -5.953125 4.203125 -5.832031 4.453125 -5.59375 C 4.703125 -5.363281 4.828125 -5.023438 4.828125 -4.578125 L 4.828125 -3.796875 C 4.828125 -3.390625 4.710938 -3.070312 4.484375 -2.84375 C 4.253906 -2.625 3.941406 -2.457031 3.546875 -2.34375 L 2.421875 -1.984375 C 2.335938 -1.960938 2.28125 -1.9375 2.25 -1.90625 C 2.21875 -1.882812 2.203125 -1.828125 2.203125 -1.734375 L 2.203125 -1.5625 L 4.5625 -1.5625 C 4.664062 -1.5625 4.738281 -1.535156 4.78125 -1.484375 C 4.832031 -1.441406 4.859375 -1.367188 4.859375 -1.265625 L 4.859375 -0.296875 C 4.859375 -0.191406 4.832031 -0.113281 4.78125 -0.0625 C 4.738281 -0.0195312 4.664062 0 4.5625 0 Z M 4.5625 0 "/></g></g></g><g fill="#fab425" fill-opacity="1"><g transform="translate(138.275144, 60.038774)"><g><path d="M 5.53125 -1.5625 C 5.53125 -1.3125 5.492188 -1.082031 5.421875 -0.875 C 5.347656 -0.664062 5.21875 -0.488281 5.03125 -0.34375 C 4.84375 -0.195312 4.582031 -0.0820312 4.25 0 C 3.925781 0.0820312 3.515625 0.125 3.015625 0.125 C 2.503906 0.125 2.082031 0.0820312 1.75 0 C 1.425781 -0.0820312 1.171875 -0.195312 0.984375 -0.34375 C 0.796875 -0.488281 0.664062 -0.664062 0.59375 -0.875 C 0.519531 -1.082031 0.484375 -1.3125 0.484375 -1.5625 L 0.484375 -4.375 C 0.484375 -4.632812 0.519531 -4.863281 0.59375 -5.0625 C 0.664062 -5.269531 0.796875 -5.445312 0.984375 -5.59375 C 1.171875 -5.75 1.425781 -5.867188 1.75 -5.953125 C 2.082031 -6.035156 2.503906 -6.078125 3.015625 -6.078125 C 3.515625 -6.078125 3.925781 -6.035156 4.25 -5.953125 C 4.582031 -5.867188 4.84375 -5.75 5.03125 -5.59375 C 5.21875 -5.445312 5.347656 -5.269531 5.421875 -5.0625 C 5.492188 -4.863281 5.53125 -4.632812 5.53125 -4.375 Z M 2.34375 -1.859375 C 2.34375 -1.742188 2.382812 -1.648438 2.46875 -1.578125 C 2.550781 -1.503906 2.734375 -1.46875 3.015625 -1.46875 C 3.296875 -1.46875 3.472656 -1.503906 3.546875 -1.578125 C 3.628906 -1.648438 3.671875 -1.742188 3.671875 -1.859375 L 3.671875 -4.078125 C 3.671875 -4.179688 3.628906 -4.269531 3.546875 -4.34375 C 3.472656 -4.425781 3.296875 -4.46875 3.015625 -4.46875 C 2.734375 -4.46875 2.550781 -4.425781 2.46875 -4.34375 C 2.382812 -4.269531 2.34375 -4.179688 2.34375 -4.078125 Z M 2.34375 -1.859375 "/></g></g></g><g fill="#fab425" fill-opacity="1"><g transform="translate(148.875691, 60.038774)"><g><path d="M 4.34375 0 L 0.6875 0 C 0.582031 0 0.503906 -0.0195312 0.453125 -0.0625 C 0.410156 -0.113281 0.390625 -0.191406 0.390625 -0.296875 L 0.390625 -1.296875 C 0.390625 -1.398438 0.410156 -1.472656 0.453125 -1.515625 C 0.503906 -1.566406 0.582031 -1.59375 0.6875 -1.59375 L 1.625 -1.59375 L 1.625 -4.359375 L 0.859375 -4.359375 C 0.753906 -4.359375 0.675781 -4.378906 0.625 -4.421875 C 0.582031 -4.472656 0.5625 -4.550781 0.5625 -4.65625 L 0.5625 -5.65625 C 0.5625 -5.757812 0.582031 -5.832031 0.625 -5.875 C 0.675781 -5.925781 0.753906 -5.953125 0.859375 -5.953125 L 3.25 -5.953125 C 3.351562 -5.953125 3.425781 -5.925781 3.46875 -5.875 C 3.519531 -5.832031 3.546875 -5.757812 3.546875 -5.65625 L 3.546875 -1.59375 L 4.34375 -1.59375 C 4.445312 -1.59375 4.519531 -1.566406 4.5625 -1.515625 C 4.613281 -1.472656 4.640625 -1.398438 4.640625 -1.296875 L 4.640625 -0.296875 C 4.640625 -0.191406 4.613281 -0.113281 4.5625 -0.0625 C 4.519531 -0.0195312 4.445312 0 4.34375 0 Z M 4.34375 0 "/></g></g></g><g fill="#fab425" fill-opacity="1"><g transform="translate(158.435186, 60.038774)"><g><path d="M 3.21875 0 L 1.3125 0 C 1.207031 0 1.128906 -0.0195312 1.078125 -0.0625 C 1.035156 -0.113281 1.015625 -0.191406 1.015625 -0.296875 L 1.015625 -1.265625 C 1.015625 -1.378906 1.035156 -1.457031 1.078125 -1.5 C 1.128906 -1.550781 1.207031 -1.578125 1.3125 -1.578125 L 2.859375 -1.578125 C 3.066406 -1.578125 3.203125 -1.609375 3.265625 -1.671875 C 3.335938 -1.734375 3.375 -1.863281 3.375 -2.0625 L 3.375 -2.25 C 3.25 -2.207031 3.097656 -2.175781 2.921875 -2.15625 C 2.742188 -2.132812 2.546875 -2.125 2.328125 -2.125 C 1.585938 -2.125 1.078125 -2.25 0.796875 -2.5 C 0.523438 -2.75 0.390625 -3.117188 0.390625 -3.609375 L 0.390625 -4.40625 C 0.390625 -4.65625 0.421875 -4.878906 0.484375 -5.078125 C 0.554688 -5.285156 0.679688 -5.460938 0.859375 -5.609375 C 1.035156 -5.753906 1.28125 -5.867188 1.59375 -5.953125 C 1.90625 -6.035156 2.296875 -6.078125 2.765625 -6.078125 C 3.273438 -6.078125 3.691406 -6.035156 4.015625 -5.953125 C 4.335938 -5.867188 4.585938 -5.753906 4.765625 -5.609375 C 4.953125 -5.460938 5.078125 -5.285156 5.140625 -5.078125 C 5.210938 -4.878906 5.25 -4.65625 5.25 -4.40625 L 5.25 -1.6875 C 5.25 -1.1875 5.101562 -0.78125 4.8125 -0.46875 C 4.519531 -0.15625 3.988281 0 3.21875 0 Z M 3.375 -3.78125 L 3.375 -4.265625 C 3.375 -4.359375 3.34375 -4.429688 3.28125 -4.484375 C 3.21875 -4.546875 3.066406 -4.578125 2.828125 -4.578125 C 2.578125 -4.578125 2.414062 -4.546875 2.34375 -4.484375 C 2.28125 -4.429688 2.25 -4.359375 2.25 -4.265625 L 2.25 -3.78125 C 2.25 -3.695312 2.28125 -3.625 2.34375 -3.5625 C 2.414062 -3.507812 2.578125 -3.484375 2.828125 -3.484375 C 3.066406 -3.484375 3.21875 -3.507812 3.28125 -3.5625 C 3.34375 -3.625 3.375 -3.695312 3.375 -3.78125 Z M 3.375 -3.78125 "/></g></g></g><g fill="#fab425" fill-opacity="1"><g transform="translate(83.002953, 18.150921)"><g><path d="M 6.078125 0 L 2.984375 0 C 2.160156 0 1.550781 -0.160156 1.15625 -0.484375 C 0.757812 -0.816406 0.5625 -1.320312 0.5625 -2 L 0.5625 -5.0625 C 0.5625 -5.738281 0.757812 -6.238281 1.15625 -6.5625 C 1.550781 -6.894531 2.160156 -7.0625 2.984375 -7.0625 L 5.4375 -7.0625 C 5.5625 -7.0625 5.648438 -7.03125 5.703125 -6.96875 C 5.765625 -6.914062 5.796875 -6.832031 5.796875 -6.71875 L 5.796875 -5.53125 C 5.796875 -5.40625 5.765625 -5.3125 5.703125 -5.25 C 5.648438 -5.195312 5.5625 -5.171875 5.4375 -5.171875 L 3.390625 -5.171875 C 3.191406 -5.171875 3.039062 -5.128906 2.9375 -5.046875 C 2.84375 -4.960938 2.796875 -4.84375 2.796875 -4.6875 L 2.796875 -2.328125 C 2.796875 -2.171875 2.832031 -2.050781 2.90625 -1.96875 C 2.976562 -1.894531 3.09375 -1.859375 3.25 -1.859375 L 4.203125 -1.859375 L 4.203125 -3.390625 C 4.203125 -3.515625 4.226562 -3.601562 4.28125 -3.65625 C 4.332031 -3.707031 4.421875 -3.734375 4.546875 -3.734375 L 6.078125 -3.734375 C 6.203125 -3.734375 6.289062 -3.707031 6.34375 -3.65625 C 6.394531 -3.601562 6.421875 -3.515625 6.421875 -3.390625 L 6.421875 -0.359375 C 6.421875 -0.234375 6.394531 -0.140625 6.34375 -0.078125 C 6.289062 -0.0234375 6.203125 0 6.078125 0 Z M 6.078125 0 "/></g></g></g><g fill="#fab425" fill-opacity="1"><g transform="translate(95.402673, 18.150921)"><g><path d="M 0.875 0 C 0.75 0 0.65625 -0.0234375 0.59375 -0.078125 C 0.539062 -0.140625 0.515625 -0.234375 0.515625 -0.359375 L 0.515625 -1.515625 C 0.515625 -1.640625 0.539062 -1.726562 0.59375 -1.78125 C 0.65625 -1.84375 0.75 -1.875 0.875 -1.875 L 1.84375 -1.875 L 1.84375 -5.171875 L 0.875 -5.171875 C 0.75 -5.171875 0.65625 -5.195312 0.59375 -5.25 C 0.539062 -5.3125 0.515625 -5.40625 0.515625 -5.53125 L 0.515625 -6.71875 C 0.515625 -6.832031 0.539062 -6.914062 0.59375 -6.96875 C 0.65625 -7.03125 0.75 -7.0625 0.875 -7.0625 L 5.046875 -7.0625 C 5.171875 -7.0625 5.257812 -7.03125 5.3125 -6.96875 C 5.375 -6.914062 5.40625 -6.832031 5.40625 -6.71875 L 5.40625 -5.53125 C 5.40625 -5.40625 5.375 -5.3125 5.3125 -5.25 C 5.257812 -5.195312 5.171875 -5.171875 5.046875 -5.171875 L 4.109375 -5.171875 L 4.109375 -1.875 L 5.046875 -1.875 C 5.171875 -1.875 5.257812 -1.84375 5.3125 -1.78125 C 5.375 -1.726562 5.40625 -1.640625 5.40625 -1.515625 L 5.40625 -0.359375 C 5.40625 -0.234375 5.375 -0.140625 5.3125 -0.078125 C 5.257812 -0.0234375 5.171875 0 5.046875 0 Z M 0.875 0 "/></g></g></g><g fill="#fab425" fill-opacity="1"><g transform="translate(106.792108, 18.150921)"><g><path d="M 3.234375 -5 L 2.78125 -3.515625 L 4.3125 -3.515625 L 3.859375 -5 C 3.828125 -5.0625 3.796875 -5.101562 3.765625 -5.125 C 3.742188 -5.15625 3.710938 -5.171875 3.671875 -5.171875 L 3.421875 -5.171875 C 3.378906 -5.171875 3.34375 -5.15625 3.3125 -5.125 C 3.289062 -5.101562 3.265625 -5.0625 3.234375 -5 Z M 2.671875 -0.359375 C 2.671875 -0.234375 2.644531 -0.140625 2.59375 -0.078125 C 2.539062 -0.0234375 2.453125 0 2.328125 0 L 0.890625 0 C 0.765625 0 0.671875 -0.0234375 0.609375 -0.078125 C 0.554688 -0.140625 0.53125 -0.234375 0.53125 -0.359375 L 0.53125 -2.9375 C 0.53125 -3.132812 0.5625 -3.359375 0.625 -3.609375 C 0.6875 -3.867188 0.78125 -4.171875 0.90625 -4.515625 L 1.765625 -6.734375 C 1.804688 -6.847656 1.867188 -6.929688 1.953125 -6.984375 C 2.035156 -7.035156 2.140625 -7.0625 2.265625 -7.0625 L 4.90625 -7.0625 C 5.03125 -7.0625 5.132812 -7.035156 5.21875 -6.984375 C 5.300781 -6.929688 5.359375 -6.847656 5.390625 -6.734375 L 6.25 -4.515625 C 6.382812 -4.171875 6.484375 -3.867188 6.546875 -3.609375 C 6.609375 -3.359375 6.640625 -3.132812 6.640625 -2.9375 L 6.640625 -0.359375 C 6.640625 -0.234375 6.609375 -0.140625 6.546875 -0.078125 C 6.492188 -0.0234375 6.40625 0 6.28125 0 L 4.796875 0 C 4.671875 0 4.578125 -0.0234375 4.515625 -0.078125 C 4.453125 -0.140625 4.421875 -0.234375 4.421875 -0.359375 L 4.421875 -1.734375 L 2.671875 -1.734375 Z M 5.578125 -8.796875 C 5.578125 -8.585938 5.546875 -8.394531 5.484375 -8.21875 C 5.421875 -8.050781 5.3125 -7.90625 5.15625 -7.78125 C 5 -7.664062 4.78125 -7.570312 4.5 -7.5 C 4.226562 -7.4375 3.878906 -7.40625 3.453125 -7.40625 C 3.023438 -7.40625 2.671875 -7.4375 2.390625 -7.5 C 2.117188 -7.570312 1.90625 -7.664062 1.75 -7.78125 C 1.59375 -7.90625 1.484375 -8.050781 1.421875 -8.21875 C 1.359375 -8.394531 1.328125 -8.585938 1.328125 -8.796875 L 1.328125 -9.234375 C 1.328125 -9.359375 1.351562 -9.445312 1.40625 -9.5 C 1.457031 -9.5625 1.546875 -9.59375 1.671875 -9.59375 L 2.625 -9.59375 C 2.726562 -9.59375 2.800781 -9.566406 2.84375 -9.515625 C 2.882812 -9.472656 2.90625 -9.394531 2.90625 -9.28125 L 2.90625 -9.078125 C 2.90625 -8.984375 2.9375 -8.90625 3 -8.84375 C 3.0625 -8.78125 3.21875 -8.75 3.46875 -8.75 C 3.707031 -8.75 3.863281 -8.78125 3.9375 -8.84375 C 4.007812 -8.90625 4.046875 -8.984375 4.046875 -9.078125 L 4.046875 -9.28125 C 4.046875 -9.394531 4.066406 -9.472656 4.109375 -9.515625 C 4.148438 -9.566406 4.226562 -9.59375 4.34375 -9.59375 L 5.234375 -9.59375 C 5.359375 -9.59375 5.445312 -9.5625 5.5 -9.5 C 5.550781 -9.445312 5.578125 -9.359375 5.578125 -9.234375 Z M 5.234375 2.546875 L 3.6875 2.546875 C 3.5625 2.546875 3.46875 2.515625 3.40625 2.453125 C 3.351562 2.398438 3.328125 2.3125 3.328125 2.1875 L 3.328125 0.9375 C 3.328125 0.8125 3.351562 0.722656 3.40625 0.671875 C 3.46875 0.617188 3.5625 0.59375 3.6875 0.59375 L 5.234375 0.59375 C 5.359375 0.59375 5.445312 0.617188 5.5 0.671875 C 5.5625 0.722656 5.59375 0.8125 5.59375 0.9375 L 5.59375 2.1875 C 5.59375 2.3125 5.5625 2.398438 5.5 2.453125 C 5.445312 2.515625 5.359375 2.546875 5.234375 2.546875 Z M 5.234375 2.546875 "/></g></g></g><g fill="#fab425" fill-opacity="1"><g transform="translate(119.407619, 18.150921)"><g><path d="M 4.015625 0 L 2.421875 0 C 2.296875 0 2.207031 -0.0234375 2.15625 -0.078125 C 2.101562 -0.140625 2.078125 -0.234375 2.078125 -0.359375 L 2.078125 -5.171875 L 0.625 -5.171875 C 0.5 -5.171875 0.410156 -5.195312 0.359375 -5.25 C 0.304688 -5.3125 0.28125 -5.40625 0.28125 -5.53125 L 0.28125 -6.71875 C 0.28125 -6.832031 0.304688 -6.914062 0.359375 -6.96875 C 0.410156 -7.03125 0.5 -7.0625 0.625 -7.0625 L 5.8125 -7.0625 C 5.9375 -7.0625 6.023438 -7.03125 6.078125 -6.96875 C 6.128906 -6.914062 6.15625 -6.832031 6.15625 -6.71875 L 6.15625 -5.53125 C 6.15625 -5.40625 6.128906 -5.3125 6.078125 -5.25 C 6.023438 -5.195312 5.9375 -5.171875 5.8125 -5.171875 L 4.359375 -5.171875 L 4.359375 -0.359375 C 4.359375 -0.234375 4.332031 -0.140625 4.28125 -0.078125 C 4.226562 -0.0234375 4.140625 0 4.015625 0 Z M 4.015625 0 "/></g></g></g><g fill="#fab425" fill-opacity="1"><g transform="translate(131.297297, 18.150921)"><g><path d="M 6.6875 -1.859375 C 6.6875 -1.554688 6.640625 -1.28125 6.546875 -1.03125 C 6.460938 -0.789062 6.304688 -0.582031 6.078125 -0.40625 C 5.859375 -0.226562 5.550781 -0.09375 5.15625 0 C 4.769531 0.09375 4.269531 0.140625 3.65625 0.140625 C 3.050781 0.140625 2.550781 0.09375 2.15625 0 C 1.757812 -0.09375 1.445312 -0.226562 1.21875 -0.40625 C 1 -0.582031 0.84375 -0.789062 0.75 -1.03125 C 0.664062 -1.28125 0.625 -1.554688 0.625 -1.859375 L 0.625 -6.71875 C 0.625 -6.832031 0.648438 -6.914062 0.703125 -6.96875 C 0.765625 -7.03125 0.859375 -7.0625 0.984375 -7.0625 L 2.515625 -7.0625 C 2.640625 -7.0625 2.726562 -7.03125 2.78125 -6.96875 C 2.84375 -6.914062 2.875 -6.832031 2.875 -6.71875 L 2.875 -2.234375 C 2.875 -2.109375 2.921875 -2 3.015625 -1.90625 C 3.117188 -1.820312 3.34375 -1.78125 3.6875 -1.78125 C 4.03125 -1.78125 4.25 -1.820312 4.34375 -1.90625 C 4.445312 -2 4.5 -2.109375 4.5 -2.234375 L 4.5 -6.71875 C 4.5 -6.832031 4.523438 -6.914062 4.578125 -6.96875 C 4.628906 -7.03125 4.71875 -7.0625 4.84375 -7.0625 L 6.34375 -7.0625 C 6.46875 -7.0625 6.554688 -7.03125 6.609375 -6.96875 C 6.660156 -6.914062 6.6875 -6.832031 6.6875 -6.71875 Z M 4.96875 -7.53125 L 3.59375 -7.34375 C 3.519531 -7.332031 3.46875 -7.335938 3.4375 -7.359375 C 3.414062 -7.390625 3.398438 -7.4375 3.390625 -7.5 L 3.28125 -8.265625 C 3.28125 -8.335938 3.289062 -8.390625 3.3125 -8.421875 C 3.34375 -8.453125 3.390625 -8.472656 3.453125 -8.484375 L 4.328125 -8.609375 C 4.390625 -8.617188 4.4375 -8.632812 4.46875 -8.65625 C 4.5 -8.675781 4.515625 -8.71875 4.515625 -8.78125 C 4.515625 -8.820312 4.492188 -8.851562 4.453125 -8.875 C 4.421875 -8.90625 4.378906 -8.921875 4.328125 -8.921875 L 3.0625 -8.921875 C 2.988281 -8.921875 2.9375 -8.9375 2.90625 -8.96875 C 2.882812 -9 2.875 -9.046875 2.875 -9.109375 L 2.875 -9.828125 C 2.875 -9.890625 2.882812 -9.9375 2.90625 -9.96875 C 2.9375 -10 2.988281 -10.015625 3.0625 -10.015625 L 4.703125 -10.015625 C 5.035156 -10.015625 5.296875 -9.925781 5.484375 -9.75 C 5.671875 -9.582031 5.765625 -9.335938 5.765625 -9.015625 L 5.765625 -8.375 C 5.765625 -8.09375 5.691406 -7.890625 5.546875 -7.765625 C 5.398438 -7.640625 5.207031 -7.5625 4.96875 -7.53125 Z M 4.96875 -7.53125 "/></g></g></g><g fill="#fab425" fill-opacity="1"><g transform="translate(144.069749, 18.150921)"><g><path d="M 0.875 0 C 0.75 0 0.65625 -0.0234375 0.59375 -0.078125 C 0.539062 -0.140625 0.515625 -0.234375 0.515625 -0.359375 L 0.515625 -1.515625 C 0.515625 -1.640625 0.539062 -1.726562 0.59375 -1.78125 C 0.65625 -1.84375 0.75 -1.875 0.875 -1.875 L 1.84375 -1.875 L 1.84375 -5.171875 L 0.875 -5.171875 C 0.75 -5.171875 0.65625 -5.195312 0.59375 -5.25 C 0.539062 -5.3125 0.515625 -5.40625 0.515625 -5.53125 L 0.515625 -6.71875 C 0.515625 -6.832031 0.539062 -6.914062 0.59375 -6.96875 C 0.65625 -7.03125 0.75 -7.0625 0.875 -7.0625 L 5.046875 -7.0625 C 5.171875 -7.0625 5.257812 -7.03125 5.3125 -6.96875 C 5.375 -6.914062 5.40625 -6.832031 5.40625 -6.71875 L 5.40625 -5.53125 C 5.40625 -5.40625 5.375 -5.3125 5.3125 -5.25 C 5.257812 -5.195312 5.171875 -5.171875 5.046875 -5.171875 L 4.109375 -5.171875 L 4.109375 -1.875 L 5.046875 -1.875 C 5.171875 -1.875 5.257812 -1.84375 5.3125 -1.78125 C 5.375 -1.726562 5.40625 -1.640625 5.40625 -1.515625 L 5.40625 -0.359375 C 5.40625 -0.234375 5.375 -0.140625 5.3125 -0.078125 C 5.257812 -0.0234375 5.171875 0 5.046875 0 Z M 0.875 0 "/></g></g></g><g fill="#fab425" fill-opacity="1"><g transform="translate(155.448259, 18.150921)"><g/></g></g><path fill="#000000" d="M 20 43.078125 C 13.386719 41.007812 9.597656 42.226562 7.5 43.8125 C 10.800781 50.675781 17.78125 55.417969 25.839844 55.417969 C 37.074219 55.417969 46.210938 46.207031 46.210938 34.882812 C 46.210938 34.589844 46.207031 34.304688 46.195312 34.015625 C 43.003906 44.75 30.320312 46.304688 20 43.078125 " fill-opacity="1" fill-rule="nonzero"/><path fill="#fab425" d="M 19.238281 40.40625 C 12.304688 37.445312 8.308594 38.683594 6.175781 40.246094 C 6.507812 41.484375 6.953125 42.675781 7.5 43.8125 C 9.597656 42.226562 13.386719 41.007812 20 43.078125 C 30.320312 46.304688 43.003906 44.75 46.195312 34.015625 C 41.960938 44.378906 29.1875 44.652344 19.238281 40.40625 " fill-opacity="1" fill-rule="nonzero"/><path fill="#ff8210" d="M 42.171875 34.714844 C 41.808594 34.410156 41.402344 34.300781 41.609375 34.050781 C 41.816406 33.800781 42.277344 33.847656 42.636719 34.148438 C 43 34.453125 43.128906 34.902344 42.921875 35.152344 C 42.714844 35.402344 42.535156 35.019531 42.171875 34.714844 Z M 41.710938 33.519531 C 40.769531 33.519531 40.011719 34.285156 40.011719 35.230469 C 40.011719 36.179688 40.769531 36.945312 41.710938 36.945312 C 42.648438 36.945312 43.410156 36.179688 43.410156 35.230469 C 43.410156 34.285156 42.648438 33.519531 41.710938 33.519531 " fill-opacity="1" fill-rule="nonzero"/><path fill="#ff8210" d="M 12.199219 31.964844 C 11.835938 31.660156 11.429688 31.546875 11.636719 31.300781 C 11.839844 31.050781 12.300781 31.09375 12.664062 31.398438 C 13.027344 31.703125 13.152344 32.152344 12.949219 32.402344 C 12.742188 32.648438 12.558594 32.269531 12.199219 31.964844 Z M 11.734375 30.769531 C 10.796875 30.769531 10.035156 31.535156 10.035156 32.480469 C 10.035156 33.425781 10.796875 34.195312 11.734375 34.195312 C 12.675781 34.195312 13.433594 33.425781 13.433594 32.480469 C 13.433594 31.535156 12.675781 30.769531 11.734375 30.769531 " fill-opacity="1" fill-rule="nonzero"/><path fill="#ff8210" d="M 8.359375 34.570312 C 7.820312 34.117188 7.21875 33.949219 7.523438 33.578125 C 7.832031 33.210938 8.515625 33.273438 9.054688 33.726562 C 9.59375 34.179688 9.78125 34.847656 9.476562 35.21875 C 9.171875 35.585938 8.898438 35.019531 8.359375 34.570312 Z M 7.671875 32.789062 C 6.277344 32.789062 5.144531 33.929688 5.144531 35.335938 C 5.144531 36.742188 6.277344 37.882812 7.671875 37.882812 C 9.070312 37.882812 10.199219 36.742188 10.199219 35.335938 C 10.199219 33.929688 9.070312 32.789062 7.671875 32.789062 " fill-opacity="1" fill-rule="nonzero"/><path fill="#ff8210" d="M 42.515625 29.46875 C 42.335938 29.316406 42.136719 29.261719 42.238281 29.140625 C 42.339844 29.015625 42.566406 29.039062 42.746094 29.1875 C 42.925781 29.339844 42.988281 29.558594 42.886719 29.683594 C 42.785156 29.804688 42.695312 29.617188 42.515625 29.46875 Z M 42.285156 28.878906 C 41.824219 28.878906 41.449219 29.253906 41.449219 29.722656 C 41.449219 30.1875 41.824219 30.566406 42.285156 30.566406 C 42.75 30.566406 43.125 30.1875 43.125 29.722656 C 43.125 29.253906 42.75 28.878906 42.285156 28.878906 " fill-opacity="1" fill-rule="nonzero"/><path fill="#ff8210" d="M 12.878906 27.308594 C 12.699219 27.160156 12.5 27.105469 12.601562 26.980469 C 12.703125 26.859375 12.929688 26.878906 13.109375 27.03125 C 13.285156 27.179688 13.351562 27.402344 13.25 27.523438 C 13.148438 27.648438 13.058594 27.460938 12.878906 27.308594 Z M 12.648438 26.71875 C 12.1875 26.71875 11.8125 27.097656 11.8125 27.5625 C 11.8125 28.03125 12.1875 28.410156 12.648438 28.410156 C 13.113281 28.410156 13.488281 28.03125 13.488281 27.5625 C 13.488281 27.097656 13.113281 26.71875 12.648438 26.71875 " fill-opacity="1" fill-rule="nonzero"/><path fill="#ff8210" d="M 45.042969 32.019531 C 44.765625 31.789062 44.457031 31.703125 44.613281 31.515625 C 44.769531 31.324219 45.121094 31.359375 45.394531 31.589844 C 45.671875 31.820312 45.769531 32.160156 45.613281 32.351562 C 45.457031 32.539062 45.316406 32.25 45.042969 32.019531 Z M 44.691406 31.109375 C 43.976562 31.109375 43.398438 31.691406 43.398438 32.414062 C 43.398438 33.132812 43.976562 33.714844 44.691406 33.714844 C 45.402344 33.714844 45.980469 33.132812 45.980469 32.414062 C 45.980469 31.691406 45.402344 31.109375 44.691406 31.109375 " fill-opacity="1" fill-rule="nonzero"/><path fill="#ff8210" d="M 9.902344 29.171875 C 9.625 28.941406 9.316406 28.855469 9.476562 28.664062 C 9.632812 28.476562 9.980469 28.511719 10.257812 28.742188 C 10.53125 28.972656 10.628906 29.3125 10.472656 29.503906 C 10.316406 29.691406 10.175781 29.402344 9.902344 29.171875 Z M 9.550781 28.261719 C 8.835938 28.261719 8.257812 28.84375 8.257812 29.5625 C 8.257812 30.285156 8.835938 30.867188 9.550781 30.867188 C 10.265625 30.867188 10.84375 30.285156 10.84375 29.5625 C 10.84375 28.84375 10.265625 28.261719 9.550781 28.261719 " fill-opacity="1" fill-rule="nonzero"/><g clip-path="url(#id1)"><path fill="#fab425" d="M 45.707031 21.527344 L 44.683594 24.082031 C 46.78125 27.492188 47.992188 31.511719 47.992188 35.816406 C 47.992188 48.128906 38.089844 58.109375 25.878906 58.109375 C 13.664062 58.109375 3.761719 48.128906 3.761719 35.816406 C 3.761719 31.25 5.125 27.007812 7.460938 23.472656 L 6.457031 20.96875 C 3.351562 25.09375 1.507812 30.238281 1.507812 35.816406 C 1.507812 49.386719 12.417969 60.386719 25.878906 60.386719 C 39.335938 60.386719 50.25 49.386719 50.25 35.816406 C 50.25 30.488281 48.566406 25.554688 45.707031 21.527344 " fill-opacity="1" fill-rule="nonzero"/></g><g clip-path="url(#id2)"><path fill="#fab425" d="M 27.746094 19.398438 C 27.445312 17.703125 27.292969 17.570312 25.582031 17.527344 C 27.265625 17.222656 27.394531 17.070312 27.441406 15.34375 C 27.742188 17.042969 27.894531 17.175781 29.605469 17.21875 C 27.921875 17.523438 27.789062 17.675781 27.746094 19.398438 Z M 23.523438 30.5625 C 24.375 28.039062 24.269531 27.746094 21.988281 26.394531 C 24.492188 27.253906 24.78125 27.144531 26.125 24.84375 C 25.269531 27.371094 25.378906 27.664062 27.660156 29.015625 C 25.15625 28.15625 24.867188 28.261719 23.523438 30.5625 Z M 18.636719 24.84375 C 17.992188 21.21875 17.671875 20.941406 14.019531 20.84375 C 17.613281 20.195312 17.890625 19.867188 17.988281 16.1875 C 18.632812 19.8125 18.953125 20.09375 22.605469 20.1875 C 19.011719 20.839844 18.734375 21.164062 18.636719 24.84375 Z M 32.21875 9.382812 C 31.597656 12.160156 29.136719 14.238281 26.195312 14.238281 C 23.25 14.238281 20.789062 12.160156 20.167969 9.382812 C 15.359375 10.582031 9.070312 12.839844 6.40625 16.792969 L 9.414062 24.296875 C 9.796875 25.878906 15.296875 23.074219 15.296875 23.074219 C 15.296875 23.074219 14.847656 27.5625 14.144531 37.601562 C 14.515625 37.453125 14.917969 37.371094 15.34375 37.371094 C 16.476562 37.371094 17.472656 37.957031 18.054688 38.84375 C 18.042969 38.753906 18.035156 38.660156 18.035156 38.566406 C 18.035156 37.421875 18.957031 36.492188 20.09375 36.492188 C 21.234375 36.492188 22.15625 37.421875 22.15625 38.566406 C 22.15625 38.601562 22.152344 38.632812 22.152344 38.667969 C 22.40625 38.601562 22.671875 38.566406 22.945312 38.566406 C 23.777344 38.566406 24.539062 38.882812 25.113281 39.402344 C 25.285156 38.25 26.273438 37.371094 27.460938 37.371094 C 27.699219 37.371094 27.925781 37.40625 28.140625 37.46875 C 28.140625 37.4375 28.136719 37.402344 28.136719 37.371094 C 28.136719 36.597656 28.757812 35.972656 29.519531 35.972656 C 30.285156 35.972656 30.90625 36.597656 30.90625 37.371094 C 30.90625 37.71875 30.78125 38.035156 30.570312 38.277344 C 30.832031 38.210938 31.105469 38.175781 31.382812 38.175781 C 32.527344 38.175781 33.53125 38.769531 34.109375 39.667969 C 34.632812 39.183594 35.328125 38.886719 36.09375 38.886719 C 37.039062 38.886719 37.878906 39.335938 38.414062 40.035156 C 37.613281 28.28125 37.09375 23.074219 37.09375 23.074219 C 37.09375 23.074219 42.59375 25.878906 42.972656 24.296875 L 45.980469 16.792969 C 43.316406 12.839844 37.03125 10.582031 32.21875 9.382812 " fill-opacity="1" fill-rule="nonzero"/></g></svg>